<svg width="802" height="685" viewBox="0 0 802 685" fill="none" xmlns="http://www.w3.org/2000/svg">
<rect width="802" height="685" fill="url(#paint0_linear_406_687)"/>
<path d="M968.156 197.521C985.5 268.045 936.086 340.827 857.786 360.084C779.485 379.341 555.319 373.843 537.975 303.319C520.63 232.796 631.494 -21.4117 709.795 -40.6687C788.095 -59.9258 950.811 126.998 968.156 197.521Z" fill="#568CF5"/>
<path d="M501 130.655C501 203.195 405.533 262 287.768 262C170.002 262 -146 203.195 -146 130.655C-146 58.115 99.8986 -162 217.664 -162C335.429 -162 501 58.115 501 130.655Z" fill="#DC562C"/>
<path d="M369 673C369 745.625 303.634 804.5 223 804.5C142.366 804.5 -74 745.625 -74 673C-74 600.375 94.3664 380 175 380C255.634 380 369 600.375 369 673Z" fill="#6DCA76"/>
<defs>
<linearGradient id="paint0_linear_406_687" x1="401" y1="0" x2="401" y2="685" gradientUnits="userSpaceOnUse">
<stop stop-color="#F9A474"/>
<stop offset="1" stop-color="#D98C46"/>
</linearGradient>
</defs>
</svg>
