<svg width="1628" height="448" viewBox="0 0 1628 448" fill="none" xmlns="http://www.w3.org/2000/svg">
<rect x="-77" y="-119" width="1628" height="448" fill="url(#paint0_angular_406_757)"/>
<path d="M882 93.5002C882 172.201 1583 477 361.434 454C223.915 454 112.434 390.201 112.434 311.5C112.434 232.8 223.915 235 361.434 235C498.952 235 882 14.7996 882 93.5002Z" fill="#82EEB4"/>
<path d="M1599.39 -240.995C1599.39 -162.238 1937.69 142.78 1348.17 119.764C1281.8 119.764 1228 55.9187 1228 -22.8383C1228 -101.595 1281.8 -99.3932 1348.17 -99.3932C1414.53 -99.3932 1599.39 -319.752 1599.39 -240.995Z" fill="#82EEE8"/>
<path d="M331.391 -166.925C331.391 -64.6858 669.693 331.274 80.167 301.395C13.8006 301.395 -40 218.515 -40 116.276C-40 14.0371 13.8006 16.8958 80.167 16.8958C146.533 16.8958 331.391 -269.163 331.391 -166.925Z" fill="#8299EE"/>
<path d="M1100.26 391.561C1128.22 363.677 997.551 16.1771 1405.73 441.693C1452.6 488.679 1467.94 549.373 1439.98 577.257C1412.03 605.141 1374.82 566.272 1327.95 519.287C1281.08 472.301 1072.31 419.445 1100.26 391.561Z" fill="#09D4E0"/>
<defs>
<radialGradient id="paint0_angular_406_757" cx="0" cy="0" r="1" gradientUnits="userSpaceOnUse" gradientTransform="translate(737 105) rotate(90) scale(224 814)">
<stop stop-color="#0D2A2C"/>
<stop offset="0.177083" stop-color="#0D3535"/>
<stop offset="0.375" stop-color="#377C7C"/>
<stop offset="0.588542" stop-color="#36925B"/>
<stop offset="0.848958" stop-color="#0E562B"/>
<stop offset="1" stop-color="#113739"/>
</radialGradient>
</defs>
</svg>
