<svg width="1628" height="448" viewBox="0 0 1628 448" fill="none" xmlns="http://www.w3.org/2000/svg">
<rect x="-365.547" y="-223.241" width="2157.9" height="593.819" fill="url(#paint0_angular_406_757)"/>
<path d="M905.597 58.4261C905.597 162.743 1834.76 566.751 215.592 536.265C33.3119 536.265 -114.455 451.699 -114.455 347.383C-114.455 243.066 33.3119 245.983 215.592 245.983C397.872 245.983 905.597 -45.8907 905.597 58.4261Z" fill="#82EEB4"/>
<path d="M1856.49 -384.943C1856.49 -280.552 2304.91 123.746 1523.5 93.2382C1435.53 93.2382 1364.22 8.61227 1364.22 -95.7794C1364.22 -200.171 1435.53 -197.252 1523.5 -197.252C1611.46 -197.252 1856.49 -489.335 1856.49 -384.943Z" fill="#82EEE8"/>
<path d="M175.771 -286.764C175.771 -151.248 624.186 373.593 -157.224 333.989C-245.192 333.989 -316.504 224.131 -316.504 88.615C-316.504 -46.9013 -245.192 -43.1122 -157.224 -43.1122C-69.2559 -43.1122 175.771 -422.28 175.771 -286.764Z" fill="#8299EE"/>
<path d="M1194.9 453.503C1231.95 416.543 1058.76 -44.0648 1599.79 519.953C1661.92 582.231 1682.25 662.68 1645.2 699.64C1608.15 736.6 1558.82 685.08 1496.69 622.801C1434.57 560.523 1157.85 490.463 1194.9 453.503Z" fill="#09D4E0"/>
<defs>
<radialGradient id="paint0_angular_406_757" cx="0" cy="0" r="1" gradientUnits="userSpaceOnUse" gradientTransform="translate(713.401 73.6689) rotate(90) scale(296.91 1078.95)">
<stop stop-color="#0D2A2C"/>
<stop offset="0.177083" stop-color="#0D3535"/>
<stop offset="0.375" stop-color="#377C7C"/>
<stop offset="0.588542" stop-color="#36925B"/>
<stop offset="0.848958" stop-color="#0E562B"/>
<stop offset="1" stop-color="#113739"/>
</radialGradient>
</defs>
</svg>
