<svg width="464" height="464" viewBox="0 0 464 464" fill="none" xmlns="http://www.w3.org/2000/svg">
<g filter="url(#filter0_di_438_799)">
<path d="M444 222C444 344.607 344.607 444 222 444C99.3928 444 0 344.607 0 222C0 99.3928 99.3928 0 222 0C344.607 0 444 99.3928 444 222ZM60.5479 222C60.5479 311.168 132.832 383.452 222 383.452C311.168 383.452 383.452 311.168 383.452 222C383.452 132.832 311.168 60.5479 222 60.5479C132.832 60.5479 60.5479 132.832 60.5479 222Z" fill="url(#paint0_radial_438_799)"/>
</g>
<defs>
<filter id="filter0_di_438_799" x="-11" y="0" width="475" height="464" filterUnits="userSpaceOnUse" color-interpolation-filters="sRGB">
<feFlood flood-opacity="0" result="BackgroundImageFix"/>
<feColorMatrix in="SourceAlpha" type="matrix" values="0 0 0 0 0 0 0 0 0 0 0 0 0 0 0 0 0 0 127 0" result="hardAlpha"/>
<feOffset dx="10" dy="10"/>
<feGaussianBlur stdDeviation="5"/>
<feComposite in2="hardAlpha" operator="out"/>
<feColorMatrix type="matrix" values="0 0 0 0 0 0 0 0 0 0 0 0 0 0 0 0 0 0 0.25 0"/>
<feBlend mode="normal" in2="BackgroundImageFix" result="effect1_dropShadow_438_799"/>
<feBlend mode="normal" in="SourceGraphic" in2="effect1_dropShadow_438_799" result="shape"/>
<feColorMatrix in="SourceAlpha" type="matrix" values="0 0 0 0 0 0 0 0 0 0 0 0 0 0 0 0 0 0 127 0" result="hardAlpha"/>
<feOffset dx="-11" dy="7"/>
<feGaussianBlur stdDeviation="9"/>
<feComposite in2="hardAlpha" operator="arithmetic" k2="-1" k3="1"/>
<feColorMatrix type="matrix" values="0 0 0 0 0 0 0 0 0 0 0 0 0 0 0 0 0 0 0.25 0"/>
<feBlend mode="normal" in2="shape" result="effect2_innerShadow_438_799"/>
</filter>
<radialGradient id="paint0_radial_438_799" cx="0" cy="0" r="1" gradientUnits="userSpaceOnUse" gradientTransform="translate(222 222) rotate(-7.82274) scale(224.085)">
<stop stop-color="#8859E6"/>
<stop offset="0.739583" stop-color="#4B2A8D"/>
<stop offset="0.864583" stop-color="#8D5FE7"/>
<stop offset="0.892122" stop-color="#7038E1"/>
<stop offset="1" stop-color="#3C1589"/>
</radialGradient>
</defs>
</svg>
