<svg width="1728" height="1166" viewBox="0 0 1728 1166" fill="none" xmlns="http://www.w3.org/2000/svg">
<path d="M11.6352 474.5C11.6352 670.837 -91.9292 830 -219.682 830C-347.436 830 -451 670.837 -451 474.5C-451 278.163 -331.819 -81 -204.066 -81C-129.814 -81 412.939 -64.6707 450.846 75.5C478.159 176.498 11.6352 392.277 11.6352 474.5Z" fill="#AAADF7"/>
<path d="M1055.5 480C1055.5 676.337 762.837 875.5 566.5 875.5C370.163 875.5 198 312.837 198 116.5C198 -79.8371 900.163 228.5 1096.5 228.5C1292.84 228.5 1055.5 283.663 1055.5 480Z" fill="#5513C1"/>
<path d="M1467 495.986C1467 692.323 1493.7 1431.49 1111.5 851.485C915.163 851.485 756 692.323 756 495.986C756 299.648 915.163 352.986 1111.5 352.986C1307.84 352.986 1767 -68.0143 1467 495.986Z" fill="#5B9DEA"/>
<path d="M1285 764.875C1285 961.212 1281.2 1721 899 1141C742.5 925.125 574 961.212 574 764.875C574 568.538 733.163 621.875 929.5 621.875C1125.84 621.875 1585 200.875 1285 764.875Z" fill="#1363C1"/>
<path d="M800 1074.5C1282.5 1297.5 590.337 1159 394 1159C197.662 1159 -60.0004 1617 -60 1053.5C-60 857.163 -45.8372 707 150.5 707C346.837 707 548.5 864 800 1074.5Z" fill="#13B7C1"/>
<circle cx="1615.5" cy="107.5" r="355.5" fill="#365863"/>
<circle cx="1648.5" cy="647.5" r="355.5" fill="#63B799"/>
<circle cx="1055.5" cy="-44.5" r="355.5" fill="#416689"/>
<circle cx="667.5" cy="-44.5" r="355.5" fill="#5281AD"/>
<circle cx="279.5" cy="-44.5" r="355.5" fill="#7578BD"/>
<path d="M1082.74 801.063C1163.69 697.69 1290.22 640.624 1421.28 648.373L1765.13 668.701C1833.8 672.761 1877.96 743.337 1851.58 806.87L1711.13 1145.17C1702.31 1166.4 1686.45 1183.95 1666.2 1194.86L1472.35 1299.29C1433.55 1320.2 1385.63 1313.23 1354.38 1282.14L1052.93 982.13C1017.03 946.402 1013.51 889.474 1044.74 849.596L1082.74 801.063Z" fill="#60DBA0"/>
</svg>
