<svg width="802" height="685" viewBox="0 0 802 685" fill="none" xmlns="http://www.w3.org/2000/svg">
<path d="M-1298.13 25.5466H621.736V569.849H-1298.13V25.5466Z" fill="url(#paint0_linear_4001_42)"/>
<path d="M670.274 746.862C605.567 800.425 413.525 825.266 241.336 802.346C69.147 779.427 -340.437 674.506 -275.73 620.944C-211.023 567.382 344.862 452.709 517.051 475.628C689.24 498.547 734.981 693.3 670.274 746.862Z" fill="#939598"/>
<path d="M334.583 554.909C364.665 589.708 222.883 633.745 17.9023 653.269C-187.078 672.792 -761.494 696.971 -791.576 662.172C-821.658 627.373 -484.932 481.014 -279.952 461.49C-74.9716 441.966 304.501 520.11 334.583 554.909Z" fill="white"/>
<defs>
<linearGradient id="paint0_linear_4001_42" x1="-338.199" y1="25.5466" x2="-338.199" y2="569.849" gradientUnits="userSpaceOnUse">
<stop stop-color="#0C5683"/>
<stop offset="1" stop-color="#223D73"/>
</linearGradient>
</defs>
</svg>
